<?xml version="1.0" encoding="UTF-8"?>
<svg xmlns="http://www.w3.org/2000/svg" viewBox="0 0 24 24" class="w-24 h-24">
  <style>
    .calendar { fill: #4F46E5; }
    .date { fill: #818CF8; }
    .highlight { fill: #6366F1; }
    @keyframes pulse {
      0% { transform: scale(1); }
      50% { transform: scale(1.1); }
      100% { transform: scale(1); }
    }
    .animate-pulse {
      animation: pulse 2s infinite;
    }
  </style>
  <g class="animate-pulse">
    <path class="calendar" d="M19 4h-1V2h-2v2H8V2H6v2H5c-1.11 0-1.99.9-1.99 2L3 20c0 1.1.89 2 2 2h14c1.1 0 2-.9 2-2V6c0-1.1-.9-2-2-2zm0 16H5V10h14v10zM5 8V6h14v2H5z"/>
    <path class="date" d="M7 14h10v2H7v-2zm0-4h10v2H7v-2z"/>
    <path class="highlight" d="M12 18h2v2h-2z"/>
  </g>
</svg> 