<?xml version="1.0" encoding="UTF-8"?>
<svg xmlns="http://www.w3.org/2000/svg" viewBox="0 0 24 24" class="w-24 h-24">
  <style>
    .frame { fill: #4F46E5; }
    .image { fill: #818CF8; }
    .shine { fill: #6366F1; }
    @keyframes slide {
      0% { transform: translateX(0); }
      50% { transform: translateX(5px); }
      100% { transform: translateX(0); }
    }
    .animate-slide {
      animation: slide 3s ease-in-out infinite;
    }
    @keyframes fade {
      0% { opacity: 0.5; }
      50% { opacity: 1; }
      100% { opacity: 0.5; }
    }
    .animate-fade {
      animation: fade 2s ease-in-out infinite;
    }
  </style>
  <g class="animate-slide">
    <path class="frame" d="M21 19V5c0-1.1-.9-2-2-2H5c-1.1 0-2 .9-2 2v14c0 1.1.9 2 2 2h14c1.1 0 2-.9 2-2zM8.5 13.5l2.5 3.01L14.5 12l4.5 6H5l3.5-4.5z"/>
    <g class="animate-fade">
      <path class="image" d="M5 19l3.5-4.5 2.5 3.01L14.5 12l4.5 6H5z"/>
      <path class="shine" d="M8.5 13.5l2.5 3.01L14.5 12l4.5 6H5l3.5-4.5z"/>
    </g>
  </g>
</svg> 