<?xml version="1.0" encoding="UTF-8"?>
<svg xmlns="http://www.w3.org/2000/svg" viewBox="0 0 24 24" class="w-24 h-24">
  <style>
    .briefcase { fill: #4F46E5; }
    .handle { fill: #818CF8; }
    .shine { fill: #6366F1; }
    @keyframes float {
      0% { transform: translateY(0); }
      50% { transform: translateY(-5px); }
      100% { transform: translateY(0); }
    }
    .animate-float {
      animation: float 3s ease-in-out infinite;
    }
  </style>
  <g class="animate-float">
    <path class="briefcase" d="M20 6h-4V4c0-1.11-.89-2-2-2h-4c-1.11 0-2 .89-2 2v2H4c-1.11 0-1.99.9-1.99 2L2 19c0 1.1.89 2 2 2h16c1.1 0 2-.9 2-2V8c0-1.1-.9-2-2-2zm-4 0h-4V4h4v2z"/>
    <path class="handle" d="M12 16c-2.21 0-4-1.79-4-4s1.79-4 4-4 4 1.79 4 4-1.79 4-4 4z"/>
    <path class="shine" d="M12 14c1.1 0 2-.9 2-2s-.9-2-2-2-2 .9-2 2 .9 2 2 2z"/>
  </g>
</svg> 