<?xml version="1.0" encoding="UTF-8"?>
<svg xmlns="http://www.w3.org/2000/svg" viewBox="0 0 24 24" class="w-24 h-24">
  <style>
    .circle { fill: #4F46E5; }
    .question { fill: #818CF8; }
    .dot { fill: #6366F1; }
    @keyframes pulse {
      0% { transform: scale(1); }
      50% { transform: scale(1.1); }
      100% { transform: scale(1); }
    }
    .animate-pulse {
      animation: pulse 2s ease-in-out infinite;
    }
    @keyframes bounce {
      0% { transform: translateY(0); }
      50% { transform: translateY(-2px); }
      100% { transform: translateY(0); }
    }
    .animate-bounce {
      animation: bounce 1.5s ease-in-out infinite;
    }
  </style>
  <g class="animate-pulse">
    <path class="circle" d="M12 2C6.48 2 2 6.48 2 12s4.48 10 10 10 10-4.48 10-10S17.52 2 12 2zm0 18c-4.41 0-8-3.59-8-8s3.59-8 8-8 8 3.59 8 8-3.59 8-8 8z"/>
    <path class="question" d="M12 17c-1.1 0-2-.9-2-2s.9-2 2-2 2 .9 2 2-.9 2-2 2zm-1-10c0-1.1.9-2 2-2s2 .9 2 2h-4z"/>
    <g class="animate-bounce">
      <path class="dot" d="M12 19c-1.1 0-2-.9-2-2s.9-2 2-2 2 .9 2 2-.9 2-2 2z"/>
    </g>
  </g>
</svg> 